# xmcd
#
# Track frame offsets: 
#        150
#        14612
#        27490
#        41580
#        59322
#        82400
#        95690
#        109835
#        126197
#        152490
#
# Disc length: 2218 seconds
#
# Revision: 7
# Processed by: cddbd v1.5.2PL0 Copyright (c) Steve Scherf et al.
# Submitted via: ExactAudioCopy v0.95b3
#
DISCID=8608a80a,8e08a60a
DTITLE=Neil Young - Old Ways [1996 MFSL Remaster
DYEAR=1985
DGENRE=Rock
TTITLE0=The Wayward Wind
TTITLE1=Get Back To The Country
TTITLE2=Are There Any More Real Cowboys?
TTITLE3=Once An Angel
TTITLE4=Misfits
TTITLE5=California Sunset
TTITLE6=Old Ways
TTITLE7=My Boy
TTITLE8=Bound For Glory
TTITLE9=Where Is The Highway Tonight?
EXTD=
EXTT0=
EXTT1=
EXTT2=
EXTT3=
EXTT4=
EXTT5=
EXTT6=
EXTT7=
EXTT8=
EXTT9=
PLAYORDER=
